<svg width="20" height="21" viewBox="0 0 20 21" fill="none" xmlns="http://www.w3.org/2000/svg">
<path d="M20.0001 4.78566C20.0001 4.0279 19.699 3.30117 19.1632 2.76535C18.6274 2.22953 17.9007 1.92851 17.1429 1.92851H16.4286V1.23431C16.4286 0.849936 16.1331 0.520024 15.7487 0.500828C15.6521 0.496174 15.5556 0.511178 15.465 0.544929C15.3744 0.578679 15.2916 0.630475 15.2216 0.697177C15.1516 0.763879 15.0959 0.844098 15.0578 0.932974C15.0197 1.02185 15.0001 1.11753 15.0001 1.21422V1.92851H5.00002V1.23431C5.00002 0.849936 4.70448 0.520024 4.3201 0.500828C4.22353 0.496174 4.12701 0.511178 4.0364 0.544929C3.94579 0.578679 3.86298 0.630475 3.79298 0.697177C3.72298 0.763879 3.66725 0.844098 3.62917 0.932974C3.59109 1.02185 3.57145 1.11753 3.57144 1.21422V1.92851H2.85715C2.09939 1.92851 1.37266 2.22953 0.836841 2.76535C0.301021 3.30117 0 4.0279 0 4.78566V5.32138C0 5.36874 0.0188138 5.41416 0.0523026 5.44765C0.0857913 5.48114 0.131212 5.49995 0.178572 5.49995H19.8215C19.8689 5.49995 19.9143 5.48114 19.9478 5.44765C19.9813 5.41416 20.0001 5.36874 20.0001 5.32138V4.78566ZM0 17.6428C0 18.4006 0.301021 19.1273 0.836841 19.6632C1.37266 20.199 2.09939 20.5 2.85715 20.5H17.1429C17.9007 20.5 18.6274 20.199 19.1632 19.6632C19.699 19.1273 20.0001 18.4006 20.0001 17.6428V7.06246C20.0001 7.02694 19.986 6.99287 19.9608 6.96775C19.9357 6.94264 19.9017 6.92853 19.8661 6.92853H0.133929C0.0984088 6.92853 0.0643435 6.94264 0.039227 6.96775C0.0141104 6.99287 0 7.02694 0 7.06246V17.6428ZM15.3572 8.3571C15.5691 8.3571 15.7763 8.41994 15.9524 8.53767C16.1286 8.6554 16.266 8.82274 16.3471 9.01852C16.4282 9.21429 16.4494 9.42972 16.408 9.63756C16.3667 9.8454 16.2647 10.0363 16.1148 10.1862C15.965 10.336 15.7741 10.438 15.5662 10.4794C15.3584 10.5207 15.143 10.4995 14.9472 10.4184C14.7514 10.3373 14.5841 10.2 14.4663 10.0238C14.3486 9.84759 14.2858 9.64044 14.2858 9.42854C14.2858 9.14437 14.3986 8.87185 14.5996 8.67092C14.8005 8.46999 15.073 8.3571 15.3572 8.3571ZM15.3572 11.9285C15.5691 11.9285 15.7763 11.9914 15.9524 12.1091C16.1286 12.2268 16.266 12.3942 16.3471 12.59C16.4282 12.7857 16.4494 13.0012 16.408 13.209C16.3667 13.4168 16.2647 13.6077 16.1148 13.7576C15.965 13.9074 15.7741 14.0095 15.5662 14.0508C15.3584 14.0922 15.143 14.0709 14.9472 13.9898C14.7514 13.9088 14.5841 13.7714 14.4663 13.5952C14.3486 13.419 14.2858 13.2119 14.2858 13C14.2858 12.7158 14.3986 12.4433 14.5996 12.2424C14.8005 12.0414 15.073 11.9285 15.3572 11.9285ZM11.7858 8.3571C11.9977 8.3571 12.2048 8.41994 12.381 8.53767C12.5572 8.6554 12.6945 8.82274 12.7756 9.01852C12.8567 9.21429 12.8779 9.42972 12.8366 9.63756C12.7953 9.8454 12.6932 10.0363 12.5434 10.1862C12.3935 10.336 12.2026 10.438 11.9948 10.4794C11.7869 10.5207 11.5715 10.4995 11.3757 10.4184C11.18 10.3373 11.0126 10.2 10.8949 10.0238C10.7772 9.84759 10.7143 9.64044 10.7143 9.42854C10.7143 9.14437 10.8272 8.87185 11.0281 8.67092C11.2291 8.46999 11.5016 8.3571 11.7858 8.3571ZM11.7858 11.9285C11.9977 11.9285 12.2048 11.9914 12.381 12.1091C12.5572 12.2268 12.6945 12.3942 12.7756 12.59C12.8567 12.7857 12.8779 13.0012 12.8366 13.209C12.7953 13.4168 12.6932 13.6077 12.5434 13.7576C12.3935 13.9074 12.2026 14.0095 11.9948 14.0508C11.7869 14.0922 11.5715 14.0709 11.3757 13.9898C11.18 13.9088 11.0126 13.7714 10.8949 13.5952C10.7772 13.419 10.7143 13.2119 10.7143 13C10.7143 12.7158 10.8272 12.4433 11.0281 12.2424C11.2291 12.0414 11.5016 11.9285 11.7858 11.9285ZM11.7858 15.5C11.9977 15.5 12.2048 15.5628 12.381 15.6806C12.5572 15.7983 12.6945 15.9656 12.7756 16.1614C12.8567 16.3572 12.8779 16.5726 12.8366 16.7804C12.7953 16.9883 12.6932 17.1792 12.5434 17.329C12.3935 17.4789 12.2026 17.5809 11.9948 17.6223C11.7869 17.6636 11.5715 17.6424 11.3757 17.5613C11.18 17.4802 11.0126 17.3429 10.8949 17.1667C10.7772 16.9905 10.7143 16.7833 10.7143 16.5714C10.7143 16.2873 10.8272 16.0147 11.0281 15.8138C11.2291 15.6129 11.5016 15.5 11.7858 15.5ZM8.21431 11.9285C8.42622 11.9285 8.63337 11.9914 8.80957 12.1091C8.98577 12.2268 9.12309 12.3942 9.20419 12.59C9.28528 12.7857 9.3065 13.0012 9.26516 13.209C9.22382 13.4168 9.12177 13.6077 8.97193 13.7576C8.82209 13.9074 8.63118 14.0095 8.42334 14.0508C8.2155 14.0922 8.00007 14.0709 7.80429 13.9898C7.60852 13.9088 7.44118 13.7714 7.32345 13.5952C7.20572 13.419 7.14288 13.2119 7.14288 13C7.14288 12.7158 7.25576 12.4433 7.4567 12.2424C7.65763 12.0414 7.93015 11.9285 8.21431 11.9285ZM8.21431 15.5C8.42622 15.5 8.63337 15.5628 8.80957 15.6806C8.98577 15.7983 9.12309 15.9656 9.20419 16.1614C9.28528 16.3572 9.3065 16.5726 9.26516 16.7804C9.22382 16.9883 9.12177 17.1792 8.97193 17.329C8.82209 17.4789 8.63118 17.5809 8.42334 17.6223C8.2155 17.6636 8.00007 17.6424 7.80429 17.5613C7.60852 17.4802 7.44118 17.3429 7.32345 17.1667C7.20572 16.9905 7.14288 16.7833 7.14288 16.5714C7.14288 16.2873 7.25576 16.0147 7.4567 15.8138C7.65763 15.6129 7.93015 15.5 8.21431 15.5ZM4.64287 11.9285C4.85478 11.9285 5.06193 11.9914 5.23813 12.1091C5.41432 12.2268 5.55165 12.3942 5.63275 12.59C5.71384 12.7857 5.73506 13.0012 5.69372 13.209C5.65238 13.4168 5.55033 13.6077 5.40049 13.7576C5.25065 13.9074 5.05974 14.0095 4.8519 14.0508C4.64406 14.0922 4.42863 14.0709 4.23285 13.9898C4.03707 13.9088 3.86974 13.7714 3.75201 13.5952C3.63428 13.419 3.57144 13.2119 3.57144 13C3.57144 12.7158 3.68432 12.4433 3.88526 12.2424C4.08619 12.0414 4.35871 11.9285 4.64287 11.9285ZM4.64287 15.5C4.85478 15.5 5.06193 15.5628 5.23813 15.6806C5.41432 15.7983 5.55165 15.9656 5.63275 16.1614C5.71384 16.3572 5.73506 16.5726 5.69372 16.7804C5.65238 16.9883 5.55033 17.1792 5.40049 17.329C5.25065 17.4789 5.05974 17.5809 4.8519 17.6223C4.64406 17.6636 4.42863 17.6424 4.23285 17.5613C4.03707 17.4802 3.86974 17.3429 3.75201 17.1667C3.63428 16.9905 3.57144 16.7833 3.57144 16.5714C3.57144 16.2873 3.68432 16.0147 3.88526 15.8138C4.08619 15.6129 4.35871 15.5 4.64287 15.5Z" fill="white"/>
</svg>
