<svg width="17" height="17" viewBox="0 0 17 17" fill="none" xmlns="http://www.w3.org/2000/svg">
<path d="M16.5 12.4289V15.572C16.5001 15.797 16.4148 16.0138 16.2614 16.1784C16.108 16.343 15.8978 16.4434 15.6733 16.4591C15.2852 16.4864 14.9681 16.5 14.7222 16.5C6.86711 16.5 0.5 10.1329 0.5 2.27778C0.5 2.03244 0.51363 1.71541 0.540889 1.32667C0.556642 1.10217 0.656961 0.89201 0.821603 0.738586C0.986245 0.585162 1.20295 0.499898 1.428 0.5H4.57111C4.68137 0.499889 4.78773 0.540764 4.86954 0.614685C4.95134 0.688606 5.00275 0.790296 5.01378 0.9C5.03393 1.10385 5.05289 1.26741 5.07067 1.39067C5.24731 2.62349 5.60932 3.82252 6.14444 4.94711C6.22889 5.12489 6.17378 5.33733 6.01378 5.45111L4.09556 6.82178C5.26863 9.55447 7.44642 11.7323 10.1791 12.9053L11.548 10.9907C11.6037 10.9122 11.6854 10.8558 11.7785 10.8316C11.8717 10.8074 11.9704 10.8168 12.0573 10.8582C13.1818 11.3923 14.3805 11.7535 15.6129 11.9293C15.7361 11.9471 15.8991 11.9661 16.1018 11.9862C16.2113 11.9975 16.3128 12.049 16.3865 12.1307C16.4603 12.2125 16.5001 12.3188 16.5 12.4289Z" fill="white"/>
</svg>
