<svg width="30" height="30" viewBox="0 0 30 30" fill="none" xmlns="http://www.w3.org/2000/svg">
<path d="M15.0002 0C12.0994 0 9.26373 0.860185 6.85181 2.47178C4.43989 4.08337 2.56002 6.37399 1.44994 9.05398C0.339851 11.734 0.049402 14.6829 0.615319 17.528C1.18124 20.373 2.5781 22.9864 4.62927 25.0376C6.68044 27.0887 9.29379 28.4856 12.1388 29.0515C14.9839 29.6174 17.9329 29.327 20.6129 28.2169C23.2928 27.1068 25.5835 25.227 27.1951 22.815C28.8067 20.4031 29.6668 17.5675 29.6668 14.6667C29.6623 10.7782 28.1155 7.05037 25.366 4.30083C22.6165 1.55129 18.8886 0.00458729 15.0002 0ZM19.9428 19.6093C19.6928 19.8593 19.3537 19.9997 19.0002 19.9997C18.6466 19.9997 18.3075 19.8593 18.0575 19.6093L14.0575 15.6093C13.8074 15.3593 13.6669 15.0203 13.6668 14.6667V6.66667C13.6668 6.31304 13.8073 5.97391 14.0574 5.72386C14.3074 5.47381 14.6465 5.33333 15.0002 5.33333C15.3538 5.33333 15.6929 5.47381 15.943 5.72386C16.193 5.97391 16.3335 6.31304 16.3335 6.66667V14.1147L19.9428 17.724C20.1928 17.974 20.3332 18.3131 20.3332 18.6667C20.3332 19.0202 20.1928 19.3593 19.9428 19.6093Z" fill="#805E59"/>
</svg>
