<svg width="21" height="21" viewBox="0 0 21 21" fill="none" xmlns="http://www.w3.org/2000/svg">
<path d="M10.5 0C4.70094 0 0 4.70094 0 10.5C0 16.2991 4.70094 21 10.5 21C16.2991 21 21 16.2991 21 10.5C21 4.70094 16.2991 0 10.5 0ZM11.4067 16.1929V17.6717H9.99212V16.2095C7.67091 15.8916 6.65443 13.9843 6.65443 13.9843L8.09932 12.7757C8.09932 12.7757 9.02188 14.3817 10.6907 14.3817C11.6126 14.3817 12.3119 13.8883 12.3119 13.0452C12.3119 11.0743 7.00193 11.3135 7.00193 7.65718C7.00193 6.06781 8.25898 4.92273 9.9914 4.65182V3.17442H11.4059V4.65182C12.6139 4.81075 14.0443 5.4465 14.0443 6.81409V7.86308H12.1688V7.35448C12.1688 6.82998 11.5006 6.48032 10.7529 6.48032C9.79923 6.48032 9.10063 6.95714 9.10063 7.62467C9.10063 9.64318 14.4106 9.15047 14.4106 12.9816C14.4106 14.5565 13.2344 15.9219 11.4067 16.1929Z" fill="white"/>
</svg>
