<svg width="45" height="45" viewBox="0 0 45 45" fill="none" xmlns="http://www.w3.org/2000/svg">
<path d="M22.4902 4.05613C28.4987 4.05613 29.2046 4.08285 31.5796 4.18974C33.776 4.28819 34.9628 4.65386 35.7573 4.96609C36.8105 5.37677 37.5614 5.85917 38.346 6.64536C39.1307 7.43155 39.6228 8.18118 40.025 9.23459C40.3287 10.0292 40.7042 11.2177 40.8012 13.4131C40.9081 15.7885 40.9348 16.4932 40.9348 22.5042C40.9348 28.5153 40.9081 29.2199 40.8012 31.5954C40.7028 33.7922 40.3372 34.9792 40.025 35.7738C39.6144 36.8273 39.1321 37.5783 38.346 38.3631C37.56 39.1479 36.8105 39.6401 35.7573 40.0423C34.9628 40.3461 33.7746 40.7217 31.5796 40.8187C29.2046 40.9256 28.5001 40.9523 22.4902 40.9523C16.4802 40.9523 15.7757 40.9256 13.4007 40.8187C11.2043 40.7202 10.0175 40.3546 9.22302 40.0423C8.1698 39.6317 7.41891 39.1493 6.63427 38.3631C5.84963 37.5769 5.35748 36.8273 4.95532 35.7738C4.65158 34.9792 4.27614 33.7908 4.17911 31.5954C4.07225 29.2199 4.04553 28.5153 4.04553 22.5042C4.04553 16.4932 4.07225 15.7885 4.17911 13.4131C4.27754 11.2162 4.64315 10.0292 4.95532 9.23459C5.36591 8.18118 5.84823 7.43015 6.63427 6.64536C7.42032 5.86058 8.1698 5.36833 9.22302 4.96609C10.0175 4.6623 11.2057 4.28679 13.4007 4.18974C15.7757 4.07301 16.4802 4.05613 22.4902 4.05613ZM22.4902 0.00140643C16.3832 0.00140643 15.6154 0.0281285 13.2137 0.135017C10.8204 0.241905 9.18646 0.62586 7.7592 1.17999C6.27711 1.751 5.02703 2.52875 3.77695 3.77907C2.52687 5.02938 1.75911 6.28813 1.17836 7.76206C0.624336 9.19099 0.240454 10.8253 0.133585 13.2274C0.0267171 15.6212 0 16.3891 0 22.4958C0 28.6025 0.0267171 29.3718 0.133585 31.774C0.240454 34.1677 0.624336 35.802 1.17836 37.2393C1.74927 38.7217 2.52687 39.972 3.77695 41.2223C5.02703 42.4727 6.28554 43.2406 7.7592 43.8214C9.18786 44.3755 10.8218 44.7595 13.2235 44.8664C15.6253 44.9733 16.3846 45 22.5 45C28.6154 45 29.3747 44.9733 31.7765 44.8664C34.1697 44.7595 35.8037 44.3755 37.2408 43.8214C38.7229 43.2504 39.973 42.4727 41.223 41.2223C42.4731 39.972 43.2409 38.7133 43.8216 37.2393C44.3757 35.8104 44.7595 34.1761 44.8664 31.774C44.9733 29.3718 45 28.6123 45 22.4958C45 16.3792 44.9733 15.6198 44.8664 13.2176C44.7595 10.8239 44.3757 9.18959 43.8216 7.75222C43.2507 6.26985 42.4731 5.01953 41.223 3.76922C39.973 2.51891 38.7145 1.751 37.2408 1.17015C35.8121 0.616015 34.1782 0.23206 31.7765 0.125172C29.3663 0.0267221 28.5985 0 22.4916 0L22.4902 0.00140643ZM22.4902 10.9406C16.116 10.9406 10.9371 16.1106 10.9371 22.4958C10.9371 28.881 16.116 34.051 22.4902 34.051C28.8643 34.051 34.0432 28.8711 34.0432 22.4958C34.0432 16.1205 28.8643 10.9406 22.4902 10.9406ZM22.4902 29.9962C18.3476 29.9962 14.9911 26.6391 14.9911 22.4958C14.9911 18.3525 18.3476 14.9953 22.4902 14.9953C26.6327 14.9953 29.9892 18.3525 29.9892 22.4958C29.9892 26.6391 26.6327 29.9962 22.4902 29.9962ZM37.1944 10.4849C37.1944 11.9743 35.9879 13.181 34.4988 13.181C33.0097 13.181 31.8032 11.9743 31.8032 10.4849C31.8032 8.9955 33.0097 7.78879 34.4988 7.78879C35.9879 7.78879 37.1944 8.9955 37.1944 10.4849Z" fill="#464142"/>
</svg>
