<svg width="19" height="13" viewBox="0 0 19 13" fill="none" xmlns="http://www.w3.org/2000/svg">
<path d="M2.45801 0C1.56087 0 0.833008 0.727865 0.833008 1.625C0.833008 2.1362 1.07337 2.61693 1.48301 2.925L8.84968 8.45C9.23561 8.73776 9.76374 8.73776 10.1497 8.45L17.5163 2.925C17.926 2.61693 18.1663 2.1362 18.1663 1.625C18.1663 0.727865 17.4385 0 16.5413 0H2.45801ZM0.833008 3.79167V10.8333C0.833008 12.0284 1.80462 13 2.99967 13H15.9997C17.1947 13 18.1663 12.0284 18.1663 10.8333V3.79167L10.7997 9.31667C10.4249 9.59847 9.96861 9.75085 9.49967 9.75085C9.03074 9.75085 8.5745 9.59847 8.19968 9.31667L0.833008 3.79167Z" fill="white"/>
</svg>
