<svg width="189" height="44" viewBox="0 0 189 44" fill="none" xmlns="http://www.w3.org/2000/svg">
<path d="M104.744 15.5785C104.362 15.7066 103.599 15.9177 102.703 15.9177C101.698 15.9177 100.872 15.6765 100.226 15.096C99.6572 14.5834 99.2988 13.7542 99.2988 12.7818C99.3066 10.9274 100.67 9.57812 102.89 9.57812C103.653 9.57812 104.261 9.73643 104.541 9.86457L104.339 10.5204C103.981 10.3696 103.544 10.2566 102.874 10.2566C101.262 10.2566 100.21 11.1988 100.21 12.7517C100.21 14.3271 101.223 15.2543 102.773 15.2543C103.334 15.2543 103.716 15.1789 103.91 15.0885V13.2341H102.563V12.5858H104.752V15.5785H104.744Z" fill="white"/>
<path d="M117.231 12.6864C117.231 14.8272 115.845 15.9579 114.154 15.9579C112.402 15.9579 111.171 14.684 111.171 12.807C111.171 10.832 112.48 9.54297 114.248 9.54297C116.063 9.55051 117.231 10.8471 117.231 12.6864ZM112.09 12.7919C112.09 14.1186 112.854 15.3096 114.209 15.3096C115.564 15.3096 116.336 14.1412 116.336 12.7316C116.336 11.4953 115.65 10.2063 114.217 10.2063C112.799 10.1988 112.09 11.4275 112.09 12.7919Z" fill="white"/>
<path d="M123.86 9.64844H124.717V15.189H127.545V15.8598H123.86V9.64844Z" fill="white"/>
<path d="M134.011 9.64844H137.586V10.3193H134.868V12.3848H137.376V13.0481H134.868V15.8598H134.011V9.64844Z" fill="white"/>
<path d="M156.547 15.6564C156.235 15.8071 155.604 15.9504 154.794 15.9504C152.925 15.9504 151.515 14.8423 151.515 12.807C151.515 10.8621 152.925 9.54297 154.981 9.54297C155.807 9.54297 156.329 9.70881 156.555 9.82188L156.344 10.4777C156.017 10.3345 155.558 10.2214 155.005 10.2214C153.447 10.2214 152.418 11.1486 152.418 12.7844C152.418 14.3071 153.353 15.2795 154.966 15.2795C155.488 15.2795 156.017 15.1815 156.36 15.0232L156.547 15.6564Z" fill="white"/>
<path d="M163.13 9.64844H163.987V15.189H166.822V15.8598H163.13V9.64844Z" fill="white"/>
<path d="M173.794 9.64844V13.327C173.794 14.7216 174.457 15.3096 175.337 15.3096C176.318 15.3096 176.949 14.699 176.949 13.327V9.64844H177.814V13.2667C177.814 15.1739 176.739 15.9578 175.306 15.9578C173.95 15.9578 172.922 15.2266 172.922 13.3044V9.64844H173.794Z" fill="white"/>
<path d="M184.809 9.72971C185.183 9.65433 185.775 9.60156 186.374 9.60156C187.231 9.60156 187.784 9.73725 188.197 10.0538C188.54 10.2951 188.75 10.6644 188.75 11.1469C188.75 11.7424 188.33 12.2701 187.629 12.5113V12.5264C188.26 12.6696 189 13.1596 189 14.0867C189 14.622 188.774 15.029 188.439 15.3305C187.979 15.7301 187.231 15.911 186.148 15.911C185.556 15.911 185.105 15.8733 184.816 15.8356V9.72971H184.809ZM185.665 12.2701H186.444C187.348 12.2701 187.886 11.8253 187.886 11.2298C187.886 10.4986 187.294 10.2197 186.429 10.2197C186.032 10.2197 185.806 10.2498 185.673 10.2725V12.2701H185.665ZM185.665 15.2476C185.829 15.2778 186.078 15.2853 186.382 15.2853C187.27 15.2853 188.08 14.9838 188.08 14.0792C188.08 13.2274 187.301 12.8806 186.367 12.8806H185.658V15.2476H185.665Z" fill="white"/>
<path fill-rule="evenodd" clip-rule="evenodd" d="M171.59 41.7675H173.911V37.5235V34.5686V32.5107V30.4829H175.812H183.734H185.635V32.5107V34.5686V37.5235V41.7675H187.957V20.5703H185.635V28.5155H183.734H177.635H175.734L173.911 30.4829V29.4879V20.5703H171.59V41.7675Z" fill="white"/>
<path d="M103.552 20.5703H101.199V41.775H103.552V20.5703Z" fill="white"/>
<path fill-rule="evenodd" clip-rule="evenodd" d="M132.507 20.4609H134.735L140.492 33.9768L143.857 41.8843H141.504L138.209 33.9768H138.139" fill="white"/>
<path fill-rule="evenodd" clip-rule="evenodd" d="M128.464 41.8615L131.681 34.2932L135.047 26.3857L134.275 22.6016L129.399 34.2932H129.329L126.174 41.8615H128.464Z" fill="white"/>
<path fill-rule="evenodd" clip-rule="evenodd" d="M115.377 41.8843H117.613L123.362 28.3684L126.727 20.4609H124.374L121.079 28.3684H121.009" fill="white"/>
<path fill-rule="evenodd" clip-rule="evenodd" d="M111.334 20.4805L114.559 28.0487L117.925 35.9562L117.153 39.7404L112.277 28.0487H112.207L109.052 20.4805H111.334Z" fill="white"/>
<path fill-rule="evenodd" clip-rule="evenodd" d="M148.968 41.7675H154.281C161.626 41.7675 166.137 37.5914 166.137 31.1689C166.137 24.7464 161.595 20.5703 154.281 20.5703H148.968V41.7675ZM151.281 39.7397V22.5981H154.117C160.59 22.5981 163.683 26.1184 163.683 31.1689C163.683 36.2194 160.59 39.7397 154.117 39.7397H151.281Z" fill="white"/>
<path d="M6.69189 8.55679C6.69189 8.47387 6.66852 8.38341 6.62957 8.30049C6.59062 8.21003 6.53609 8.12711 6.46598 8.04419C6.39587 7.96127 6.31797 7.88589 6.23228 7.81051C6.14659 7.73513 6.0609 7.66729 5.97521 7.59191C5.82721 7.47883 5.6792 7.35822 5.53119 7.23008C5.38318 7.10947 5.25075 6.96624 5.1339 6.81548C5.01705 6.66472 4.91578 6.50642 4.83788 6.34058C4.75998 6.17474 4.72103 5.99383 4.72103 5.79783C4.72103 5.42847 4.79893 5.1194 4.96252 4.86311C5.11832 4.60681 5.32865 4.40328 5.57793 4.24498C5.82721 4.08668 6.09985 3.97361 6.39587 3.89823C6.69189 3.82285 6.98791 3.78516 7.26835 3.78516C7.47089 3.78516 7.66564 3.80023 7.85259 3.83038C8.04734 3.86054 8.21872 3.89823 8.36673 3.93592C8.5459 3.98115 8.70949 4.02638 8.86529 4.07914L8.51474 5.40585C8.36673 5.33801 8.21093 5.2777 8.06292 5.22494C7.93828 5.17971 7.79806 5.14202 7.65006 5.10433C7.50205 5.06664 7.36183 5.05156 7.23719 5.05156C7.13592 5.05156 7.02686 5.06664 6.91001 5.08925C6.80095 5.10433 6.69189 5.14956 6.59062 5.20232C6.49714 5.25509 6.41145 5.32293 6.34913 5.41339C6.28681 5.50385 6.24786 5.60938 6.24786 5.74507C6.24786 5.82045 6.27123 5.90337 6.31797 5.98629C6.36471 6.06921 6.42703 6.15213 6.50493 6.23505C6.58283 6.31796 6.66073 6.40088 6.75421 6.47626C6.84769 6.55918 6.94117 6.63457 7.02686 6.70241C7.15929 6.80794 7.29951 6.92855 7.43973 7.0567C7.57995 7.18485 7.71238 7.32053 7.82923 7.45622C7.94607 7.59191 8.04734 7.73513 8.12524 7.88589C8.20314 8.03666 8.24209 8.17988 8.24209 8.3231C8.24209 8.54171 8.20314 8.76785 8.12524 9.00153C8.03955 9.23522 7.93049 9.45382 7.77469 9.66489C7.6189 9.87596 7.43194 10.0795 7.20603 10.2679C6.98012 10.4564 6.72305 10.6222 6.43482 10.7655C6.14659 10.9087 5.82721 11.0142 5.47666 11.0971C5.12611 11.1801 4.75219 11.2177 4.34711 11.2177C3.80961 11.2177 3.32663 11.165 2.90597 11.067C2.48531 10.969 2.11918 10.8333 1.80759 10.6675C1.49599 10.5016 1.23113 10.3056 1.01301 10.087C0.794891 9.86842 0.615722 9.63474 0.483293 9.39352C0.350864 9.1523 0.257384 8.90354 0.195065 8.65478C0.132745 8.40602 0.109375 8.1648 0.109375 7.9462C0.109375 7.50899 0.187275 7.07178 0.343074 6.64964C0.498873 6.22751 0.701412 5.84306 0.966271 5.50385L2.21266 6.18228C2.00234 6.41596 1.86212 6.67979 1.76864 6.97378C1.68295 7.26777 1.63621 7.56175 1.63621 7.8482C1.63621 8.13465 1.69074 8.39849 1.79201 8.64724C1.89328 8.896 2.05686 9.11461 2.28277 9.29552C2.50089 9.48397 2.78133 9.6272 3.12409 9.73273C3.46685 9.83827 3.87193 9.89103 4.33932 9.89103C4.65871 9.89103 4.96252 9.86088 5.25075 9.7855C5.53119 9.71766 5.78826 9.61966 5.99858 9.49905C6.20891 9.37844 6.38029 9.23522 6.50493 9.06938C6.62178 8.91108 6.69189 8.7377 6.69189 8.55679Z" fill="white"/>
<path d="M9.75293 8.91839V7.62937H12.6508C12.8845 7.62937 13.0792 7.6143 13.2273 7.57661C13.3753 7.53892 13.4921 7.49369 13.57 7.42584C13.6479 7.358 13.7024 7.28262 13.7336 7.19216C13.757 7.1017 13.7725 7.00371 13.7725 6.89817C13.7725 6.70972 13.7102 6.50619 13.6012 6.28759C13.4843 6.06898 13.3363 5.84284 13.1494 5.61669C12.9624 5.39055 12.7521 5.16441 12.5184 4.9458C12.2847 4.7272 12.0432 4.51613 11.8095 4.32768L12.9234 3.24219C13.6946 3.87539 14.2789 4.49352 14.684 5.08903C15.0891 5.69208 15.2838 6.25744 15.2838 6.79264C15.2838 7.07909 15.2371 7.35046 15.1436 7.60676C15.0501 7.86305 14.9021 8.0892 14.6918 8.28519C14.4814 8.48118 14.2088 8.63194 13.866 8.75255C13.5311 8.86562 13.1182 8.92593 12.6352 8.92593H9.75293V8.91839Z" fill="white"/>
<path d="M16.8887 0.148438H18.4233V6.3297C18.4233 6.52569 18.4389 6.69153 18.47 6.81967C18.5012 6.94782 18.5401 7.04582 18.6025 7.1212C18.657 7.19658 47.3007 7.24935 47.3864 7.2795C47.4798 7.30965 47.5811 7.32473 47.698 7.32473H47.9862C48.0952 7.32473 48.1809 7.33227 48.2433 7.34734C48.3056 7.36242 48.3523 7.39257 48.3835 7.42272C48.4146 7.46041 48.4302 7.4981 48.438 7.55087C48.4458 7.60364 48.4458 7.67148 48.4458 7.73932V8.15392C48.4458 8.25192 48.438 8.33484 48.4302 8.39514C48.4224 8.45545 48.3991 8.50067 48.3601 8.53083C48.3212 8.56098 48.2744 8.58359 48.2199 8.59113C48.1576 8.59867 48.0875 8.60621 47.9862 8.60621H18.7583C18.4311 8.60621 18.1429 8.56098 17.9092 8.46298C17.6755 8.36499 17.4807 8.23684 17.3327 8.06346C17.1847 7.89009 17.0678 7.68656 16.9977 7.44534C16.9276 7.20412 16.8887 6.94028 16.8887 6.6463V0.148438Z" fill="white"/>
<path d="M47.9625 8.61418C47.8691 8.61418 47.7912 8.60664 47.7288 8.5991C47.6665 8.59157 47.6198 8.56895 47.5886 8.5388C47.5497 8.50865 47.5263 8.46342 47.5185 8.40311C47.5107 8.34281 47.5029 8.25989 47.5029 8.16189V7.7473C47.5029 7.67191 47.5029 7.61161 47.5107 7.55884C47.5185 7.49854 47.5341 7.46085 47.5653 7.42316C47.5964 7.38547 47.6431 7.36285 47.6977 7.34778C47.76 7.3327 47.8457 7.32516 47.9625 7.32516H49.4738V3.78224H51.0084V8.61418H47.9625ZM49.466 1.56604C49.466 1.4605 49.4894 1.36251 49.5283 1.27205C49.5673 1.18159 49.6218 1.10621 49.6919 1.03083C49.762 0.962988 49.8399 0.910221 49.9334 0.864992C50.0269 0.827302 50.1204 0.804688 50.2294 0.804688C50.3385 0.804688 50.432 0.827302 50.5254 0.864992C50.6189 0.902683 50.6968 0.95545 50.7669 1.03083C50.837 1.09867 50.8916 1.18159 50.9305 1.27205C50.9695 1.36251 50.9928 1.4605 50.9928 1.56604C50.9928 1.67157 50.9773 1.76957 50.9305 1.86002C50.8916 1.95048 50.837 2.02586 50.7669 2.10124C50.689 2.16155 50.6111 2.22185 50.5176 2.25954C50.4242 2.29724 50.3307 2.31985 50.2216 2.31985C50.1126 2.31985 50.0191 2.29724 49.9256 2.25954C49.8321 2.22185 49.7542 2.16155 49.6841 2.09371C49.614 2.02586 49.5595 1.94294 49.5205 1.85249C49.4894 1.76957 49.466 1.67157 49.466 1.56604Z" fill="white"/>
<path d="M5.91258 24.0473C5.91258 23.9343 5.90479 23.7986 5.88142 23.6403C5.85805 23.4744 5.82689 23.3011 5.78794 23.1126C5.74899 22.9242 5.69446 22.7357 5.63993 22.5397C5.57761 22.3437 5.51529 22.1553 5.4296 21.9819L6.92527 21.5598C6.9798 21.703 7.02654 21.8613 7.08107 22.0347C7.1356 22.208 7.18234 22.3889 7.22908 22.5774C7.27582 22.7659 7.31477 22.9543 7.35372 23.1428C7.39267 23.3312 7.41604 23.5197 7.43162 23.693C7.62637 23.7835 7.8367 23.8438 8.04703 23.874C8.26515 23.9041 8.46769 23.9267 8.66244 23.9343C8.75591 23.6855 8.88055 23.4141 9.02856 23.1201C9.17657 22.8262 9.34795 22.5322 9.55049 22.2382C9.74524 21.9442 9.97894 21.6577 10.2282 21.3864C10.4775 21.115 10.7579 20.8662 11.054 20.6552C11.3578 20.4441 11.6771 20.2707 12.0277 20.1426C12.3782 20.0144 12.7522 19.9541 13.1495 19.9541C13.6091 19.9541 14.0063 20.0371 14.3413 20.1878C14.6763 20.3461 14.9567 20.5572 15.1748 20.8361C15.393 21.115 15.5566 21.4391 15.6578 21.8085C15.7591 22.1854 15.8136 22.5849 15.8136 23.0146V25.2157H9.26226C8.87276 25.2157 8.52222 25.1931 8.20283 25.1404C7.89123 25.0951 7.61079 25.0122 7.3693 24.8991C7.2914 25.3288 7.15118 25.7208 6.94864 26.0675C6.74611 26.4218 6.48904 26.7234 6.18523 26.9721C5.87363 27.2284 5.51529 27.4244 5.09463 27.5601C4.68177 27.6958 4.22216 27.7712 3.70802 27.7712C3.06924 27.7712 2.51616 27.6807 2.04876 27.5073C1.58136 27.3264 1.19965 27.0852 0.888055 26.7912C0.584247 26.4897 0.358338 26.1429 0.210329 25.7509C0.0778996 25.359 0 24.9444 0 24.5147C0 24.3112 0.0233699 24.1076 0.0623197 23.889C0.101269 23.6704 0.155799 23.4518 0.225909 23.2332C0.296018 23.0146 0.381708 22.8035 0.475188 22.6C0.568667 22.3965 0.677727 22.2005 0.786786 22.0271L2.0176 22.7131C1.94749 22.8186 1.89296 22.9392 1.83843 23.0674C1.7839 23.1955 1.73716 23.3387 1.706 23.482C1.66705 23.6252 1.64368 23.776 1.62031 23.9267C1.59694 24.0775 1.58915 24.2282 1.58915 24.3715C1.58915 24.6655 1.64368 24.9444 1.74495 25.2007C1.84622 25.457 1.99423 25.6756 2.18119 25.864C2.36815 26.0525 2.58627 26.1957 2.85113 26.3012C3.10819 26.4068 3.40421 26.4595 3.7236 26.4595C4.47144 26.4595 5.02452 26.2485 5.38286 25.8263C5.73341 25.4117 5.91258 24.8162 5.91258 24.0473ZM14.2946 23.1352C14.2946 22.7659 14.2556 22.4643 14.1855 22.2156C14.1076 21.9668 14.0063 21.7708 13.8817 21.6201C13.7571 21.4768 13.6091 21.3713 13.4299 21.3035C13.2585 21.2432 13.0716 21.213 12.8768 21.213C12.6119 21.213 12.3471 21.2884 12.0744 21.4316C11.8096 21.5748 11.5525 21.7708 11.3032 22.0196C11.0617 22.2683 10.8436 22.5548 10.6411 22.8789C10.4385 23.2106 10.275 23.5574 10.1425 23.9192H14.2868V23.1352H14.2946ZM10.8125 18.1676C10.8125 18.0621 10.8358 17.9641 10.8748 17.8736C10.9137 17.7832 10.9683 17.7078 11.0384 17.6324C11.1085 17.5645 11.1864 17.5118 11.2799 17.4666C11.3733 17.4289 11.4668 17.4062 11.5759 17.4062C11.6849 17.4062 11.7784 17.4289 11.8719 17.4666C11.9654 17.5042 12.0433 17.557 12.1134 17.6324C12.1835 17.7002 12.238 17.7832 12.277 17.8736C12.3159 17.9641 12.3393 18.0621 12.3393 18.1676C12.3393 18.2731 12.3159 18.3711 12.277 18.4616C12.238 18.552 12.1835 18.6274 12.1134 18.7028C12.0433 18.7706 11.9654 18.8234 11.8719 18.8686C11.7784 18.9063 11.6849 18.929 11.5759 18.929C11.4668 18.929 11.3733 18.9063 11.2799 18.8686C11.1864 18.831 11.1085 18.7706 11.0384 18.7028C10.9683 18.635 10.9137 18.552 10.8748 18.4616C10.8358 18.3711 10.8125 18.2731 10.8125 18.1676Z" fill="white"/>
<path d="M17.2393 16.75H18.7739V22.9313C18.7739 23.1272 18.7895 23.2931 18.8206 23.4212C18.8518 23.5494 18.8907 23.6474 18.953 23.7228C19.0076 23.7981 19.0855 23.8509 19.1712 23.8811C19.2569 23.9112 19.3659 23.9263 19.4828 23.9263H19.771C19.8801 23.9263 19.9657 23.9338 20.0281 23.9489C20.0904 23.964 28.8229 23.9941 28.8541 24.0243C28.8852 24.062 28.9008 24.0997 28.9086 24.1524C28.9164 24.2052 28.9164 24.273 28.9164 24.3409V24.7555C28.9164 24.8535 28.9086 24.9364 28.9008 24.9967C28.893 25.057 28.8697 25.1022 28.8307 25.1324C28.7918 25.1625 20.0592 25.1852 20.0047 25.1927C19.9502 25.2002 19.8723 25.2078 19.771 25.2078H19.1088C18.7817 25.2078 18.4934 25.1625 18.2597 25.0645C18.026 24.9666 17.8313 24.8384 17.6833 24.665C17.5353 24.4917 17.4184 24.2881 17.3483 24.0469C17.2782 23.8057 17.2393 23.5418 17.2393 23.2479V16.75Z" fill="white"/>
<path d="M19.7476 25.215C19.6541 25.215 19.5762 25.2075 19.5217 25.1999C19.4594 25.1924 19.4126 25.1698 19.3815 25.1396C19.3425 25.1095 19.3191 25.0643 19.3114 25.004C19.3036 24.9436 19.2958 24.8607 19.2958 24.7627V24.3481C19.2958 24.2728 19.3036 24.2125 19.3036 24.1597C19.3114 24.1069 19.3269 24.0617 19.3581 24.0315C19.3893 23.9938 19.436 23.9712 19.4905 23.9562C19.5528 23.9411 19.6385 23.9335 19.7554 23.9335H29.9602V20.3906H31.4949V25.2226H19.7476V25.215ZM28.8385 26.9036C28.8385 26.798 28.8618 26.7 28.9008 26.6096C28.9397 26.5191 28.9943 26.4362 29.0644 26.3684C29.1345 26.3005 29.2124 26.2477 29.3059 26.2025C29.3994 26.1648 29.4928 26.1422 29.6019 26.1422C29.711 26.1422 29.8044 26.1648 29.8979 26.2025C29.9914 26.2402 30.0693 26.293 30.1394 26.3684C30.2095 26.4362 30.264 26.5191 30.303 26.6096C30.3419 26.7 30.3653 26.798 30.3653 26.9036C30.3653 27.0091 30.3419 27.1071 30.303 27.1975C30.264 27.288 30.2095 27.3634 30.1394 27.4388C30.0693 27.5066 29.9914 27.5594 29.8979 27.6046C29.8044 27.6423 29.711 27.6649 29.6019 27.6649C29.4928 27.6649 29.3994 27.6423 29.3059 27.6046C29.2124 27.5669 29.1345 27.5066 29.0644 27.4388C28.9943 27.3709 28.9397 27.288 28.9008 27.1975C28.8618 27.1146 28.8385 27.0166 28.8385 26.9036ZM30.6146 26.9036C30.6146 26.798 30.638 26.7 30.6769 26.6096C30.7159 26.5191 30.7704 26.4362 30.8405 26.3684C30.9106 26.3005 30.9885 26.2477 31.082 26.2025C31.1755 26.1648 31.2689 26.1422 31.378 26.1422C31.4871 26.1422 31.5805 26.1648 31.674 26.2025C31.7675 26.2402 31.8454 26.293 31.9155 26.3684C31.9856 26.4362 32.0402 26.5191 32.0791 26.6096C32.1181 26.7 32.1414 26.798 32.1414 26.9036C32.1414 27.0091 32.1181 27.1071 32.0791 27.1975C32.0402 27.288 31.9856 27.3634 31.9155 27.4388C31.8454 27.5066 31.7675 27.5594 31.674 27.6046C31.5805 27.6423 31.4871 27.6649 31.378 27.6649C31.2689 27.6649 31.1755 27.6423 31.082 27.6046C30.9885 27.5669 30.9106 27.5066 30.8405 27.4388C30.7704 27.3709 30.7159 27.288 30.6769 27.1975C30.6302 27.1146 30.6146 27.0166 30.6146 26.9036Z" fill="white"/>
<path d="M33.5518 26.3379C33.8945 26.2701 34.175 26.1872 34.3853 26.0816C34.5956 25.9836 34.7592 25.8555 34.8761 25.7047C34.9929 25.554 35.0708 25.373 35.1097 25.1695C35.1487 24.966 35.1721 24.7248 35.1721 24.4459V20.3828H36.7067V23.9257H37.8986C38.0076 23.9257 38.0933 23.9333 38.1556 23.9483C38.2179 23.9634 44.4343 23.986 44.4655 24.0237C44.4967 24.0614 44.5122 24.0991 44.52 24.1519C44.5278 24.2046 44.5278 24.2725 44.5278 24.3403V24.7549C44.5278 24.8529 44.52 24.9358 44.5122 24.9961C44.5044 25.0564 44.4811 25.1017 44.4421 25.1318C44.4032 25.162 38.1868 25.1846 38.1323 25.1921C38.0699 25.1997 37.992 25.2072 37.8986 25.2072H36.6288C36.5665 25.5841 36.4652 25.9083 36.3172 26.1872C36.177 26.4661 35.9822 26.6922 35.7485 26.8882C35.5148 27.0842 35.2266 27.235 34.8994 27.3631C34.5722 27.4837 34.1827 27.5817 33.7465 27.6496L33.5518 26.3379Z" fill="white"/>
<path d="M38.0543 25.2156C37.9609 25.2156 37.883 25.208 37.8206 25.2005C37.7583 25.193 37.7116 25.1704 37.6804 25.1402C37.6415 25.11 37.6181 25.0648 37.6103 25.0045C37.6025 24.9442 37.5947 24.8613 37.5947 24.7633V24.3487C37.5947 24.2733 37.5947 24.213 37.6025 24.1602C37.6103 24.1075 37.6259 24.0622 37.657 24.0321C37.6882 23.9944 37.7349 23.9718 37.7895 23.9567C37.8518 23.9416 37.9375 23.9341 38.0543 23.9341H45.634V16.7578H47.1686V25.2231H38.0543V25.2156Z" fill="white"/>
<path d="M51.3667 16.75H49.832V25.2228H51.3667V16.75Z" fill="white"/>
<path d="M3.97268 41.4303C3.50529 41.4303 3.09242 41.4002 2.74966 41.3474C2.39911 41.2946 2.10309 41.2117 1.85382 41.1137C1.60454 41.0157 1.39421 40.8951 1.23841 40.7519C1.07482 40.6162 0.95018 40.4579 0.856701 40.2921C0.763221 40.1262 0.700901 39.9453 0.661952 39.7493C0.623002 39.5533 0.607422 39.3573 0.607422 39.1463C0.607422 39.0709 0.615212 38.9729 0.623002 38.8674C0.630792 38.7618 0.638582 38.6487 0.654162 38.5357C0.669742 38.4226 0.685321 38.302 0.700901 38.1814C0.716481 38.0608 0.732061 37.9552 0.755431 37.8497L2.12646 37.9703C2.0953 38.1211 2.07193 38.2718 2.04856 38.4151C2.02519 38.5658 2.0174 38.7166 2.0174 38.8674C2.0174 39.101 2.04856 39.297 2.11088 39.4553C2.1732 39.6136 2.29005 39.7418 2.46143 39.8473C2.63281 39.9528 2.8743 40.0207 3.1859 40.0659C3.4975 40.1111 3.89478 40.1338 4.39334 40.1338H7.71187C7.63397 40.0282 7.56386 39.9227 7.50154 39.8021C7.43922 39.6815 7.38469 39.5684 7.34574 39.4478C7.299 39.3272 7.26784 39.2141 7.24447 39.1086C7.2211 38.9955 7.20552 38.905 7.20552 38.8221C7.20552 38.4904 7.26784 38.1814 7.40027 37.8799C7.5327 37.5859 7.71966 37.322 7.96114 37.0959C8.20263 36.8697 8.49865 36.6888 8.84141 36.5607C9.18417 36.425 9.57367 36.3647 10.0099 36.3647C10.3916 36.3647 10.7266 36.425 11.0226 36.5456C11.3186 36.6662 11.5601 36.8245 11.7626 37.028C11.9652 37.2316 12.1132 37.4653 12.2145 37.7366C12.3157 38.008 12.3703 38.2945 12.3703 38.596C12.3703 38.7241 12.3547 38.8523 12.3313 38.9955C12.3079 39.1387 12.2768 39.2744 12.2378 39.4176C12.1989 39.5609 12.1599 39.689 12.121 39.8096C12.0742 39.9378 12.0353 40.0433 12.0041 40.1413H13.4375C13.5465 40.1413 13.64 40.1488 13.7023 40.1639C13.7725 40.179 13.8192 40.2091 13.8504 40.2393C13.8815 40.277 13.9049 40.3147 13.9127 40.3674C13.9205 40.4202 13.9283 40.488 13.9283 40.5559V40.9705C13.9283 41.076 13.9205 41.1514 13.9049 41.2117C13.8893 41.272 13.8581 41.3172 13.827 41.3474C13.788 41.3775 13.7413 41.4002 13.679 41.4077C13.6167 41.4152 13.5388 41.4228 13.4453 41.4228H12.6195C12.417 41.4228 12.2145 41.4152 11.9963 41.4077C11.7782 41.3926 11.5679 41.3775 11.3654 41.3625C11.1628 41.3399 10.9603 41.3248 10.7733 41.3022C10.5864 41.2795 10.415 41.2569 10.2592 41.2343C10.0878 41.2569 9.87747 41.272 9.63599 41.2946C9.3945 41.3097 9.12964 41.3323 8.85699 41.3399C8.57655 41.3549 8.28832 41.3625 7.9923 41.3775C7.69629 41.3851 7.40806 41.4002 7.12762 41.4002C6.85497 41.4077 6.5979 41.4152 6.35641 41.4152C6.11492 41.4152 5.91238 41.4228 5.74101 41.4228H3.97268V41.4303ZM8.67782 38.694C8.67782 38.9126 8.71677 39.1161 8.79467 39.2895C8.87257 39.4629 8.98942 39.6212 9.12185 39.7418C9.26207 39.8699 9.41787 39.9679 9.60483 40.0358C9.79178 40.1036 9.98653 40.1413 10.2047 40.1413H10.4306C10.4695 40.0734 10.5163 39.983 10.563 39.885C10.6097 39.787 10.6565 39.6739 10.6954 39.5609C10.7344 39.4478 10.7655 39.3196 10.7967 39.1915C10.8201 39.0633 10.8356 38.9277 10.8356 38.792C10.8356 38.5884 10.8045 38.4151 10.75 38.2568C10.6954 38.0985 10.6175 37.9703 10.5163 37.8723C10.4228 37.7668 10.3059 37.6914 10.1891 37.6386C10.0644 37.5859 9.932 37.5633 9.79957 37.5633C9.65936 37.5633 9.52693 37.5859 9.3945 37.6311C9.26207 37.6763 9.13743 37.7442 9.03616 37.8422C8.9271 37.9326 8.84141 38.0532 8.77909 38.1965C8.70898 38.3246 8.67782 38.498 8.67782 38.694ZM9.12964 34.3746C9.12964 34.2691 9.15301 34.1711 9.19196 34.0806C9.23091 33.9902 9.28544 33.9148 9.35555 33.8394C9.42566 33.7716 9.50356 33.7188 9.59704 33.6736C9.69052 33.6359 9.78399 33.6133 9.89305 33.6133C10.0021 33.6133 10.0956 33.6359 10.1891 33.6736C10.2826 33.7113 10.3605 33.764 10.4306 33.8394C10.5007 33.9073 10.5552 33.9902 10.5942 34.0806C10.6331 34.1711 10.6487 34.2691 10.6487 34.3746C10.6487 34.4802 10.6331 34.5782 10.5942 34.6686C10.5552 34.7591 10.5007 34.8345 10.4306 34.9098C10.3605 34.9777 10.2826 35.0304 10.1891 35.0757C10.0956 35.1134 10.0021 35.136 9.89305 35.136C9.78399 35.136 9.69052 35.1134 9.59704 35.0757C9.50356 35.038 9.42566 34.9777 9.35555 34.9098C9.28544 34.842 9.23091 34.7591 9.19196 34.6686C9.15301 34.5857 9.12964 34.4877 9.12964 34.3746Z" fill="white"/>
<path d="M13.4147 41.4304C13.3212 41.4304 13.2433 41.4229 13.181 41.4153C13.1187 41.4078 13.0719 41.3852 13.0408 41.355C13.0018 41.3249 12.9784 41.2797 12.9707 41.2194C12.9629 41.1591 12.9551 41.0761 12.9551 40.9781V40.5635C12.9551 40.4882 12.9629 40.4279 12.9629 40.3751C12.9707 40.3223 12.9862 40.2771 13.0174 40.2469C13.0486 40.2092 13.0953 40.1866 13.1498 40.1716C13.2121 40.1565 13.2978 40.1489 13.4147 40.1489H17.2318V32.9727H18.7664V41.438H13.4147V41.4304Z" fill="white"/>
<path d="M22.9184 41.4297C22.3887 41.4297 21.9369 41.3619 21.5708 41.2111C21.2047 41.0679 20.9086 40.8794 20.6827 40.6533C20.4568 40.4272 20.2932 40.1709 20.192 39.8919C20.0907 39.613 20.0439 39.3417 20.0439 39.0703C20.0439 38.7085 20.1063 38.3692 20.2387 38.0451C20.3711 37.721 20.5581 37.4345 20.7996 37.1933C21.0411 36.9445 21.3371 36.7485 21.6798 36.6053C22.0226 36.4621 22.4043 36.3867 22.8328 36.3867C23.0041 36.3867 23.1911 36.4018 23.378 36.4319C23.565 36.4621 23.752 36.5224 23.9311 36.5978C24.1103 36.6807 24.2817 36.7862 24.4453 36.9295C24.6089 37.0652 24.7491 37.2385 24.8737 37.4496C24.9984 37.6607 25.0996 37.9094 25.1697 38.2034C25.2399 38.4974 25.2788 38.8291 25.2788 39.2135V40.1256H32.8273C32.9363 40.1256 33.022 40.1332 33.0843 40.1482C33.1467 40.1633 33.1934 40.1935 33.2246 40.2236C33.2557 40.2613 33.2713 40.299 33.2791 40.3518C33.2869 40.4045 33.2869 40.4724 33.2869 40.5478V40.9624C33.2869 41.0679 33.2791 41.1433 33.2713 41.2036C33.2635 41.2639 33.2323 41.3091 33.2012 41.3393C33.17 41.3694 33.1155 41.392 33.061 41.3996C32.9986 41.4071 32.9285 41.4146 32.8273 41.4146H25.1775C25.0373 41.7915 24.827 42.1232 24.5543 42.4248C24.2817 42.7187 23.9545 42.975 23.5884 43.1861C23.2145 43.4047 22.8016 43.5781 22.342 43.7138C21.8902 43.8495 21.4072 43.9399 20.9008 43.9927L20.7606 42.7338C21.1267 42.7112 21.4539 42.6584 21.7655 42.5831C22.0693 42.5077 22.3498 42.4097 22.5913 42.2891C22.8328 42.1685 23.0431 42.0403 23.2145 41.8895C23.3936 41.7388 23.5261 41.588 23.6273 41.4222H22.9184V41.4297ZM23.752 40.1332V39.5678C23.752 39.1607 23.7208 38.8366 23.6507 38.5803C23.5884 38.324 23.5027 38.128 23.3936 37.9848C23.2846 37.8416 23.1677 37.7436 23.0353 37.6908C22.9029 37.638 22.7626 37.6154 22.6302 37.6154C22.4822 37.6154 22.3342 37.6456 22.194 37.7134C22.0538 37.7737 21.9291 37.8642 21.8201 37.9773C21.711 38.0903 21.6331 38.226 21.563 38.3843C21.5007 38.5426 21.4617 38.7235 21.4617 38.912C21.4617 39.2889 21.5786 39.5829 21.8045 39.8015C22.0382 40.0201 22.3965 40.1256 22.8951 40.1256H23.752V40.1332Z" fill="white"/>
<path d="M33.6834 36.5669C33.9561 36.484 34.2365 36.4161 34.5092 36.3483C34.7818 36.288 35.0934 36.2578 35.444 36.2578C35.7867 36.2578 36.0905 36.3106 36.3554 36.4086C36.6202 36.5066 36.8461 36.6498 37.0331 36.8232C37.2201 37.0041 37.3759 37.2152 37.4927 37.4639C37.6096 37.7127 37.6875 37.984 37.742 38.278C37.7732 38.5192 37.8121 38.7529 37.8511 38.9791C37.89 39.1977 37.929 39.4012 37.9835 39.567C38.0302 39.7404 38.0848 39.8761 38.1549 39.9741C38.2172 40.0796 38.3029 40.1249 38.3963 40.1249H38.9572C39.0663 40.1249 39.152 40.1324 39.2143 40.1475C39.2766 40.1626 44.6205 40.1852 44.6517 40.2229C44.6828 40.2606 44.6984 40.2982 44.7062 40.351C44.714 40.4038 44.714 40.4716 44.714 40.5395V40.9541C44.714 41.0596 44.7062 41.135 44.6984 41.1953C44.6906 41.2556 44.6595 41.3008 44.6283 41.331C44.5972 41.3611 39.2455 41.3837 39.1831 41.3913C39.1208 41.3988 39.0507 41.4063 38.9572 41.4063H32.8032C32.7097 41.4063 32.6318 41.3988 32.5695 41.3913C32.5071 41.3837 25.9792 41.3611 25.948 41.331C25.909 41.3008 25.8857 41.2556 25.8779 41.1953C25.8701 41.135 25.8623 41.0521 25.8623 40.9541V40.5395C25.8623 40.4641 25.8701 40.4038 25.8701 40.351C25.8779 40.2982 25.8935 40.253 25.9246 40.2229C25.9558 40.1852 32.4838 40.1626 32.5461 40.1475C32.6084 40.1324 32.6941 40.1249 32.8109 40.1249H36.6981C36.6436 40.0193 36.5969 39.8912 36.5501 39.7555C36.5034 39.6123 36.4644 39.4691 36.4411 39.3183C36.4099 39.0997 36.371 38.8811 36.3242 38.6549C36.2775 38.4363 36.2074 38.2403 36.1217 38.0594C36.0282 37.886 35.9114 37.7428 35.7633 37.6297C35.6153 37.5167 35.4206 37.4639 35.1713 37.4639C35.0856 37.4639 34.9843 37.4715 34.8675 37.479C34.7506 37.4941 34.626 37.5091 34.4936 37.5318C34.3611 37.5544 34.2287 37.5845 34.0885 37.6222C33.9483 37.6599 33.8236 37.7051 33.7068 37.7579V36.5669H33.6834ZM34.813 43.1175C34.813 43.012 34.8285 42.914 34.8753 42.8235C34.9142 42.7331 34.9688 42.6501 35.0389 42.5823C35.109 42.5145 35.1869 42.4617 35.2804 42.4165C35.3738 42.3788 35.4673 42.3562 35.5764 42.3562C35.6854 42.3562 35.7789 42.3788 35.8724 42.4165C35.9659 42.4541 36.0438 42.5069 36.1139 42.5823C36.184 42.6501 36.2385 42.7331 36.2775 42.8235C36.3164 42.914 36.3398 43.012 36.3398 43.1175C36.3398 43.223 36.3164 43.321 36.2775 43.4115C36.2385 43.5019 36.184 43.5773 36.1139 43.6527C36.0438 43.7206 35.9659 43.7733 35.8724 43.8185C35.7789 43.8562 35.6854 43.8789 35.5764 43.8789C35.4673 43.8789 35.3738 43.8562 35.2804 43.8185C35.1869 43.7809 35.109 43.7206 35.0389 43.6527C34.9688 43.5849 34.9142 43.5019 34.8753 43.4115C34.8363 43.321 34.813 43.223 34.813 43.1175Z" fill="white"/>
<path d="M47.1293 39.4845C47.1293 39.5523 47.1293 39.6277 47.1215 39.6956C47.1137 39.7634 47.1059 39.8312 47.0981 39.8991C47.2929 39.9745 47.4954 40.0348 47.7213 40.0725C47.9472 40.1102 48.1731 40.1328 48.4146 40.1328H48.4613C48.5704 40.1328 48.6561 40.1403 48.7184 40.1554C48.7807 40.1705 48.8275 40.1931 48.8586 40.2308C48.8898 40.2685 48.9054 40.3061 48.9132 40.3589C48.921 40.4117 48.921 40.4795 48.921 40.5474V40.962C48.921 41.06 48.9132 41.1429 48.9054 41.2032C48.8898 41.2635 48.8664 41.3087 48.8353 41.3389C48.7963 41.369 48.7496 41.3916 48.695 41.3992C48.6327 41.4067 48.5626 41.4143 48.4613 41.4143H48.399C48.0017 41.4143 47.6668 41.369 47.3941 41.2786C47.1137 41.1881 46.8722 41.075 46.6619 40.9243C46.5216 41.075 46.3503 41.1881 46.1477 41.2786C45.9374 41.369 45.6881 41.4067 45.3921 41.4067H38.8953C38.8018 41.4067 38.7239 41.3992 38.6616 41.3916C38.5993 41.3841 38.5525 41.3615 38.5214 41.3313C38.4824 41.3012 38.459 41.256 38.4512 41.1956C38.4435 41.1353 38.4357 41.0524 38.4357 40.9544V40.5398C38.4357 40.4644 38.4357 40.4041 38.4435 40.3514C38.4512 40.2986 38.4668 40.2534 38.498 40.2232C38.5291 40.1855 38.5759 40.1629 38.6382 40.1478C38.7005 40.1328 38.7862 40.1252 38.9031 40.1252H44.8702C45.0026 40.1252 45.1117 40.1102 45.2051 40.0875C45.2986 40.0574 45.3765 40.0122 45.4311 39.9443C45.4856 39.8765 45.5323 39.7936 45.5557 39.6805C45.5791 39.5674 45.5946 39.4317 45.5946 39.2659V32.9414H47.1293V39.4845Z" fill="white"/>
<path d="M48.4303 41.4304C48.3368 41.4304 48.2589 41.4229 48.1966 41.4153C48.1343 41.4078 48.0876 41.3852 48.0564 41.355C48.0174 41.3249 47.9941 41.2797 47.9863 41.2194C47.9785 41.1591 47.9707 41.0761 47.9707 40.9781V40.5635C47.9707 40.4882 47.9707 40.4279 47.9785 40.3751C47.9863 40.3223 48.0019 40.2771 48.033 40.2469C48.0642 40.2092 48.1109 40.1866 48.1655 40.1716C48.2278 40.1565 48.3135 40.1489 48.4303 40.1489H49.8403V32.9727H51.3749V41.438H48.4303V41.4304Z" fill="white"/>
<path d="M4.47949 12.4179C4.47949 12.3123 4.49507 12.2143 4.54181 12.1239C4.58076 12.0334 4.63529 11.958 4.7054 11.8902C4.77551 11.8224 4.85341 11.7696 4.94689 11.7244C5.04037 11.6867 5.13385 11.6641 5.24291 11.6641C5.35197 11.6641 5.44545 11.6867 5.53893 11.7244C5.63241 11.7621 5.71031 11.8148 5.78042 11.8902C5.85053 11.958 5.90505 12.041 5.944 12.1239C5.98295 12.2143 6.00632 12.3123 6.00632 12.4179C6.00632 12.5234 5.99074 12.6214 5.944 12.7119C5.90505 12.8023 5.85053 12.8777 5.78042 12.9531C5.71031 13.0209 5.63241 13.0737 5.53893 13.1189C5.44545 13.1566 5.35197 13.1792 5.24291 13.1792C5.13385 13.1792 5.04037 13.1566 4.94689 13.1189C4.85341 13.0812 4.77551 13.0209 4.7054 12.9531C4.63529 12.8852 4.58076 12.8023 4.54181 12.7119C4.50286 12.6214 4.47949 12.5234 4.47949 12.4179Z" fill="white"/>
<path d="M2.82031 12.4179C2.82031 12.3123 2.83589 12.2143 2.88263 12.1239C2.92158 12.0334 2.97611 11.958 3.04622 11.8902C3.11633 11.8224 3.19423 11.7696 3.28771 11.7244C3.38119 11.6867 3.47467 11.6641 3.58373 11.6641C3.69279 11.6641 3.78627 11.6867 3.87975 11.7244C3.97323 11.7621 4.05113 11.8148 4.12124 11.8902C4.19135 11.958 4.24588 12.041 4.28483 12.1239C4.32377 12.2143 4.34714 12.3123 4.34714 12.4179C4.34714 12.5234 4.33156 12.6214 4.28483 12.7119C4.24588 12.8023 4.19135 12.8777 4.12124 12.9531C4.05113 13.0209 3.97323 13.0737 3.87975 13.1189C3.78627 13.1566 3.69279 13.1792 3.58373 13.1792C3.47467 13.1792 3.38119 13.1566 3.28771 13.1189C3.19423 13.0812 3.11633 13.0209 3.04622 12.9531C2.97611 12.8852 2.92158 12.8023 2.88263 12.7119C2.83589 12.6214 2.82031 12.5234 2.82031 12.4179Z" fill="white"/>
<path d="M86.4685 6.51294L85.8843 5.94004C82.0127 2.16344 76.6454 0 71.1613 0H64.2048L57.6613 6.33202H66.9157C73.21 6.33202 79.1304 8.70653 83.5785 13.0108L91.0958 20.2851L91.1347 17.4206C91.1347 13.3349 89.4755 9.44526 86.4685 6.51294Z" fill="white"/>
<path d="M57.6611 41.8807L66.8143 33.0234L75.9675 41.8807H57.6611Z" fill="white"/>
<path d="M98.0676 40.8198L73.3111 16.8485C71.7531 15.3409 69.6888 14.5117 67.492 14.5117L64.1891 14.5343L57.6533 20.8739H68.3334L89.9583 41.7997H97.0471C97.3977 41.4756 97.7327 41.1439 98.0676 40.8198Z" fill="white"/>
</svg>
