<svg width="13" height="42" viewBox="0 0 13 42" fill="none" xmlns="http://www.w3.org/2000/svg">
<path d="M0.471595 21.6534C0.488814 21.6703 0.506041 21.6928 0.52326 21.721C0.540478 21.7491 0.554252 21.7772 0.564583 21.8166L0.805671 22.5705L0.805671 21.9966C0.805671 21.9573 0.809083 21.9179 0.81597 21.8841C0.822858 21.8503 0.829769 21.8222 0.8401 21.7997C0.857319 21.7547 0.877955 21.721 0.898617 21.6928C0.929611 21.6535 0.964065 21.6253 1.00195 21.6084C1.03638 21.5916 1.0708 21.5859 1.10868 21.5859C1.13279 21.5859 1.15692 21.5915 1.18103 21.5972C1.21547 21.6084 1.25333 21.6309 1.28776 21.6647C1.30498 21.6816 1.32221 21.7041 1.33943 21.7322C1.35665 21.7604 1.37042 21.7885 1.38075 21.8279L2.66871 25.8505C2.67904 25.8787 2.68251 25.9068 2.68939 25.9349C2.69284 25.9631 2.69629 25.9968 2.69629 26.0249C2.69629 26.0531 2.69284 26.0869 2.68939 26.115C2.68595 26.1431 2.67904 26.1712 2.66871 26.1994L1.38075 30.2221C1.36698 30.2727 1.34634 30.3121 1.32223 30.3402C1.2878 30.3852 1.25334 30.419 1.2189 30.4359C1.18447 30.4527 1.14657 30.464 1.11213 30.464C1.08113 30.464 1.05018 30.4584 1.01918 30.4471C0.995075 30.4359 0.974388 30.4246 0.950281 30.4077C0.933063 30.3965 0.915839 30.3796 0.902064 30.3571C0.877957 30.329 0.857318 30.284 0.8401 30.2333C0.829768 30.2052 0.822861 30.1771 0.819417 30.1489C0.815973 30.1208 0.812523 30.087 0.812523 30.0533L0.812523 29.4794L0.571477 30.2333C0.554258 30.284 0.537024 30.3233 0.512918 30.3515C0.47848 30.3965 0.444064 30.4302 0.406183 30.4471C0.371746 30.464 0.333844 30.4752 0.299407 30.4752C0.268413 30.4752 0.237412 30.4696 0.206419 30.4584C0.182312 30.4471 0.161666 30.4358 0.13756 30.419C0.120341 30.4077 0.103118 30.3909 0.0893427 30.3684C0.0652364 30.3402 0.0445975 30.2952 0.0273787 30.2446C0.0170473 30.2164 0.0135835 30.1883 0.00669586 30.1602C0.00325214 30.1321 -0.000198249 30.0983 -0.000198246 30.0646L-0.00019768 22.0191C-0.000197677 21.9797 0.00325606 21.9404 0.0101437 21.9066C0.0170312 21.8729 0.0239003 21.8447 0.0342314 21.8222C0.0514502 21.7772 0.0721278 21.7435 0.0927904 21.7153C0.123784 21.6759 0.158239 21.6478 0.19612 21.6309C0.230557 21.614 0.264973 21.6084 0.302854 21.6084C0.326961 21.6084 0.351095 21.6141 0.375202 21.6197C0.399308 21.5972 0.437157 21.6141 0.471595 21.6534Z" fill="#805E59"/>
<path d="M0.471595 32.4381C0.488814 32.455 0.506041 32.4775 0.52326 32.5057C0.540478 32.5338 0.554252 32.5619 0.564583 32.6013L0.805671 33.3496L0.805671 32.7757C0.805671 32.7363 0.809083 32.697 0.81597 32.6632C0.822858 32.6295 0.829769 32.6013 0.8401 32.5788C0.857319 32.5338 0.877955 32.4944 0.898617 32.4719C0.929611 32.4325 0.964065 32.4044 1.00195 32.3875C1.03638 32.3706 1.0708 32.3594 1.10868 32.3594C1.13279 32.3594 1.15692 32.365 1.18103 32.3706C1.21547 32.3819 1.25333 32.4044 1.28776 32.4381C1.30498 32.455 1.32221 32.4775 1.33943 32.5057C1.35665 32.5338 1.37042 32.5619 1.38075 32.6013L2.66871 36.624C2.67904 36.6521 2.68251 36.6803 2.68939 36.7084C2.69284 36.7365 2.69629 36.7703 2.69629 36.7984C2.69629 36.8265 2.69284 36.8603 2.68939 36.8884C2.68595 36.9166 2.67904 36.9447 2.66871 36.9728L1.38075 40.9955C1.36698 41.0462 1.34634 41.0855 1.32223 41.1137C1.2878 41.1587 1.25334 41.1925 1.2189 41.2093C1.18447 41.2262 1.14657 41.2375 1.11213 41.2375C1.08113 41.2375 1.05018 41.2318 1.01918 41.2206C0.995075 41.2093 0.974388 41.1981 0.950281 41.1812C0.933063 41.1699 0.915839 41.1531 0.902064 41.1306C0.877957 41.1024 0.857318 41.0574 0.8401 41.0068C0.829768 40.9786 0.822861 40.9505 0.819417 40.9224C0.815973 40.8943 0.812523 40.8605 0.812523 40.8267L0.812523 40.2529L0.571477 41.0068C0.554258 41.0574 0.537024 41.0968 0.512918 41.1249C0.47848 41.1699 0.444064 41.2037 0.406183 41.2206C0.371746 41.2374 0.333844 41.2487 0.299407 41.2487C0.268413 41.2487 0.237412 41.2431 0.206419 41.2318C0.182312 41.2206 0.161666 41.2093 0.13756 41.1924C0.120341 41.1812 0.103118 41.1643 0.0893427 41.1418C0.0652364 41.1137 0.0445975 41.0687 0.0273787 41.018C0.0170473 40.9899 0.0135835 40.9618 0.00669586 40.9336C0.00325214 40.9055 -0.000198249 40.8717 -0.000198246 40.838L-0.00019768 32.7926C-0.000197677 32.7532 0.00325606 32.7138 0.0101437 32.6801C0.0170312 32.6463 0.0239003 32.6182 0.0342314 32.5957C0.0514502 32.5507 0.0721278 32.5113 0.0927904 32.4888C0.123784 32.4494 0.158239 32.4213 0.19612 32.4044C0.230557 32.3875 0.264973 32.3763 0.302854 32.3763C0.326961 32.3763 0.351095 32.3819 0.375202 32.3875C0.399308 32.3819 0.437157 32.4044 0.471595 32.4381Z" fill="#805E59"/>
<path d="M0.471595 10.8644C0.488814 10.8813 0.506041 10.9038 0.52326 10.9319C0.540478 10.96 0.554252 10.9881 0.564583 11.0275L0.805671 11.7815L0.805671 11.2076C0.805671 11.1682 0.809083 11.1288 0.81597 11.095C0.822858 11.0613 0.829769 11.0331 0.8401 11.0106C0.857319 10.9656 0.877955 10.9319 0.898617 10.9038C0.929611 10.8644 0.964065 10.8362 1.00195 10.8194C1.03638 10.8025 1.0708 10.7969 1.10868 10.7969C1.13279 10.7969 1.15692 10.8025 1.18103 10.8081C1.21547 10.8194 1.25333 10.8419 1.28776 10.8756C1.30498 10.8925 1.32221 10.915 1.33943 10.9431C1.35665 10.9713 1.37042 10.9994 1.38075 11.0388L2.66871 15.0615C2.67904 15.0896 2.68251 15.1177 2.68939 15.1459C2.69284 15.174 2.69629 15.2078 2.69629 15.2359C2.69629 15.2696 2.69284 15.2978 2.68939 15.3259C2.68595 15.3541 2.67904 15.3822 2.66871 15.4103L1.38075 19.433C1.36698 19.4836 1.34634 19.523 1.32223 19.5512C1.2878 19.6018 1.25334 19.6299 1.2189 19.6468C1.18447 19.6637 1.14657 19.6749 1.11213 19.6749C1.08113 19.6749 1.05018 19.6693 1.01918 19.6581C0.995075 19.6468 0.974388 19.6356 0.950281 19.6187C0.933063 19.6018 0.915839 19.5905 0.902064 19.568C0.877957 19.5343 0.857318 19.4949 0.8401 19.4443C0.829768 19.4161 0.822861 19.388 0.819417 19.3599C0.815973 19.3261 0.812523 19.298 0.812523 19.2642L0.812523 18.6903L0.571477 19.4386C0.554258 19.4893 0.537024 19.5286 0.512918 19.5568C0.47848 19.6074 0.444064 19.6356 0.406183 19.6524C0.371746 19.6693 0.333844 19.6806 0.299407 19.6806C0.268413 19.6806 0.237412 19.6749 0.206419 19.6637C0.182312 19.6524 0.161666 19.6412 0.13756 19.6243C0.120341 19.6074 0.103118 19.5962 0.0893427 19.5737C0.0652364 19.5399 0.0445975 19.5005 0.0273787 19.4499C0.0170473 19.4217 0.0135835 19.3936 0.00669586 19.3655C0.00325214 19.3317 -0.000198248 19.3036 -0.000198246 19.2699L-0.000197679 11.2244C-0.000197676 11.1851 0.00325606 11.1457 0.0101437 11.1119C0.0170312 11.0782 0.0239003 11.05 0.0342314 11.0275C0.0514502 10.9825 0.0721278 10.9488 0.0927904 10.9206C0.123784 10.8813 0.158239 10.8531 0.19612 10.8362C0.230557 10.8193 0.264973 10.8137 0.302854 10.8137C0.326961 10.8137 0.351095 10.8194 0.375202 10.825C0.399308 10.8081 0.437157 10.8306 0.471595 10.8644Z" fill="#805E59"/>
<path d="M0.471595 0.0787398C0.488814 0.0956182 0.506041 0.11812 0.52326 0.146251C0.540478 0.174382 0.554252 0.202537 0.564583 0.24192L0.805671 0.990174L0.805671 0.416329C0.805671 0.376946 0.809083 0.337557 0.81597 0.3038C0.822858 0.270043 0.829769 0.241898 0.8401 0.219394C0.857319 0.174384 0.877955 0.135 0.898617 0.112495C0.929611 0.0731123 0.964065 0.0450021 1.00195 0.0281237C1.03638 0.0112452 1.0708 -1.87133e-07 1.10868 -1.82771e-07C1.13279 -1.79996e-07 1.15692 0.00560262 1.18103 0.0112288C1.21547 0.0224811 1.25333 0.0449829 1.28776 0.0787399C1.30498 0.0956183 1.32221 0.11812 1.33943 0.146251C1.35665 0.174382 1.37042 0.202537 1.38075 0.24192L2.66871 4.2646C2.67904 4.29273 2.68251 4.32087 2.68939 4.349C2.69284 4.37713 2.69629 4.41088 2.69629 4.43901C2.69629 4.46714 2.69284 4.50091 2.68939 4.52905C2.68595 4.55718 2.67904 4.58529 2.66871 4.61342L1.38075 8.63613C1.36698 8.68676 1.34634 8.72616 1.32223 8.75429C1.2878 8.7993 1.25334 8.83305 1.2189 8.84992C1.18447 8.8668 1.14657 8.87805 1.11213 8.87805C1.08113 8.87805 1.05018 8.87244 1.01918 8.86119C0.995075 8.84994 0.974388 8.83868 0.950281 8.8218C0.933063 8.80492 0.915839 8.79366 0.902064 8.77115C0.877957 8.74302 0.857318 8.69803 0.8401 8.64739C0.829768 8.61926 0.822861 8.59112 0.819417 8.56299C0.815973 8.53486 0.812523 8.50111 0.812523 8.46735L0.812523 7.89347L0.571477 8.64739C0.554258 8.69803 0.537024 8.73739 0.512918 8.76552C0.47848 8.81053 0.444064 8.84431 0.406183 8.86119C0.371746 8.87807 0.333844 8.88931 0.299407 8.88931C0.268413 8.88931 0.237412 8.88367 0.206419 8.87242C0.182312 8.86116 0.161666 8.84991 0.13756 8.83303C0.120341 8.81615 0.103118 8.80492 0.0893427 8.78241C0.0652364 8.75428 0.0445975 8.70926 0.0273787 8.65862C0.0170473 8.63049 0.0135835 8.60238 0.00669586 8.57425C0.00325214 8.54612 -0.000198249 8.51234 -0.000198246 8.47858L-0.00019768 0.43319C-0.000197677 0.393807 0.00325606 0.354417 0.0101437 0.32066C0.0170312 0.286903 0.0239003 0.258793 0.0342314 0.236288C0.0514502 0.191279 0.0721278 0.151895 0.0927904 0.12939C0.123784 0.0900071 0.158239 0.0618626 0.19612 0.0449842C0.230557 0.0281057 0.264973 0.0168603 0.302854 0.0168603C0.326961 0.0168603 0.351095 0.0224975 0.375202 0.0281236C0.399308 0.0224975 0.437157 0.0393567 0.471595 0.0787398Z" fill="#805E59"/>
<path d="M3.8671 27.0497C3.88432 27.0666 3.90155 27.0891 3.91877 27.1172C3.93599 27.1453 3.94976 27.1735 3.96009 27.2129L4.20118 27.9611L4.20118 27.3873C4.20118 27.3479 4.20459 27.3085 4.21148 27.2748C4.21837 27.241 4.22528 27.2129 4.23561 27.1904C4.25283 27.1453 4.27346 27.106 4.29412 27.0835C4.32512 27.0441 4.35957 27.016 4.39745 26.9991C4.43189 26.9822 4.46635 26.9766 4.50423 26.9766C4.52834 26.9766 4.55243 26.9822 4.57654 26.9878C4.61097 26.9991 4.64883 27.0216 4.68327 27.0553C4.70049 27.0722 4.71772 27.0947 4.73494 27.1228C4.75215 27.151 4.76593 27.1791 4.77626 27.2185L6.06422 31.2412C6.07455 31.2693 6.07801 31.2975 6.0849 31.3256C6.08835 31.3537 6.0918 31.3875 6.0918 31.4156C6.0918 31.4494 6.08835 31.4775 6.0849 31.5056C6.08146 31.5338 6.07455 31.5619 6.06422 31.59L4.77626 35.6127C4.76248 35.6634 4.74185 35.7027 4.71774 35.7309C4.6833 35.7759 4.64885 35.8096 4.61441 35.8265C4.57997 35.8434 4.54212 35.8546 4.50768 35.8546C4.47668 35.8546 4.44568 35.849 4.41469 35.8378C4.39058 35.8265 4.3699 35.8153 4.34579 35.7984C4.32857 35.7871 4.31135 35.7703 4.29757 35.7477C4.27347 35.7196 4.25283 35.6746 4.23561 35.624C4.22528 35.5958 4.21837 35.5677 4.21492 35.5396C4.21148 35.5115 4.20803 35.4777 4.20803 35.4439L4.20803 34.8701L3.96698 35.624C3.94977 35.6746 3.93253 35.714 3.90843 35.7421C3.87399 35.7871 3.83957 35.8209 3.80169 35.8378C3.76381 35.8546 3.72935 35.8659 3.69491 35.8659C3.66392 35.8659 3.63296 35.8603 3.60197 35.849C3.57786 35.8378 3.55717 35.8265 3.53307 35.8096C3.51585 35.7984 3.49863 35.7815 3.48485 35.759C3.46074 35.7309 3.44011 35.6859 3.42289 35.6352C3.41256 35.6071 3.40909 35.579 3.4022 35.5508C3.39876 35.5227 3.39531 35.4889 3.39531 35.4552L3.39531 27.4154C3.39531 27.376 3.39876 27.3366 3.40565 27.3029C3.41254 27.2691 3.41945 27.241 3.42978 27.2185C3.447 27.1735 3.46764 27.1341 3.4883 27.1116C3.51929 27.0722 3.55375 27.0441 3.59163 27.0272C3.62607 27.0103 3.66048 27.0047 3.69836 27.0047C3.72247 27.0047 3.7466 27.0103 3.77071 27.0159C3.79482 26.9878 3.83267 27.0103 3.8671 27.0497Z" fill="#805E59"/>
<path d="M3.8671 16.2589C3.88432 16.2758 3.90155 16.2983 3.91877 16.3264C3.93599 16.3546 3.94976 16.3827 3.96009 16.4221L4.20118 17.176L4.20118 16.6021C4.20118 16.5627 4.20459 16.5234 4.21148 16.4896C4.21837 16.4559 4.22528 16.4277 4.23561 16.4052C4.25283 16.3602 4.27346 16.3264 4.29412 16.2983C4.32512 16.2589 4.35957 16.2308 4.39745 16.2139C4.43189 16.197 4.46635 16.1914 4.50423 16.1914C4.52834 16.1914 4.55243 16.197 4.57654 16.2027C4.61097 16.2139 4.64883 16.2364 4.68327 16.2702C4.70049 16.2871 4.71772 16.3096 4.73494 16.3377C4.75215 16.3658 4.76593 16.3939 4.77626 16.4333L6.06422 20.456C6.07455 20.4842 6.07801 20.5123 6.0849 20.5404C6.08835 20.5685 6.0918 20.6023 6.0918 20.6304C6.0918 20.6642 6.08835 20.6923 6.0849 20.7205C6.08146 20.7486 6.07455 20.7767 6.06422 20.8049L4.77626 24.8276C4.76248 24.8782 4.74185 24.9176 4.71774 24.9457C4.6833 24.9907 4.64885 25.0245 4.61441 25.0413C4.57997 25.0582 4.54212 25.0695 4.50768 25.0695C4.47668 25.0695 4.44568 25.0638 4.41469 25.0526C4.39058 25.0413 4.3699 25.0301 4.34579 25.0132C4.32857 25.002 4.31135 24.9851 4.29757 24.9626C4.27347 24.9288 4.25283 24.8894 4.23561 24.8388C4.22528 24.8107 4.21837 24.7826 4.21492 24.7544C4.21148 24.7207 4.20803 24.6925 4.20803 24.6588L4.20803 24.0849L3.96698 24.8332C3.94977 24.8838 3.93253 24.9232 3.90843 24.9513C3.87399 24.9963 3.83957 25.0301 3.80169 25.047C3.76725 25.0638 3.72935 25.0751 3.69491 25.0751C3.66392 25.0751 3.63296 25.0695 3.60197 25.0582C3.57786 25.047 3.55717 25.0357 3.53307 25.0188C3.51585 25.0076 3.49863 24.9907 3.48485 24.9682C3.46074 24.9345 3.44011 24.8951 3.42289 24.8444C3.41256 24.8163 3.40909 24.7882 3.4022 24.76C3.39876 24.7263 3.39531 24.6981 3.39531 24.6644L3.39531 16.619C3.39531 16.5796 3.39876 16.5402 3.40565 16.5065C3.41254 16.4727 3.41945 16.4446 3.42978 16.4221C3.447 16.3771 3.46764 16.3433 3.4883 16.3152C3.51929 16.2758 3.55375 16.2477 3.59163 16.2308C3.62607 16.2139 3.66048 16.2083 3.69836 16.2083C3.72247 16.2083 3.7466 16.2139 3.77071 16.2195C3.79482 16.2027 3.83267 16.2252 3.8671 16.2589Z" fill="#805E59"/>
<path d="M3.8671 5.47376C3.88432 5.49064 3.90155 5.51314 3.91877 5.54127C3.93599 5.5694 3.94976 5.59752 3.96009 5.63691L4.20118 6.39083L4.20118 5.81695C4.20118 5.77756 4.20459 5.73817 4.21148 5.70442C4.21837 5.67066 4.22528 5.64255 4.23561 5.62005C4.25283 5.57504 4.27346 5.54128 4.29412 5.51315C4.32512 5.47376 4.35957 5.44562 4.39745 5.42874C4.43189 5.41186 4.46635 5.40625 4.50423 5.40625C4.52834 5.40625 4.55243 5.41189 4.57654 5.41751C4.61097 5.42877 4.64883 5.45127 4.68327 5.48502C4.70049 5.5019 4.71772 5.5244 4.73494 5.55254C4.75215 5.58067 4.76593 5.60879 4.77626 5.64817L6.06422 9.67088C6.07455 9.69901 6.07801 9.72712 6.0849 9.75525C6.08835 9.78338 6.0918 9.81716 6.0918 9.84529C6.0918 9.87905 6.08835 9.90716 6.0849 9.93529C6.08146 9.96343 6.07455 9.99157 6.06422 10.0197L4.77626 14.0424C4.76248 14.093 4.74185 14.1324 4.71774 14.1605C4.6833 14.2112 4.64885 14.2393 4.61441 14.2562C4.57997 14.2731 4.54212 14.2843 4.50768 14.2843C4.47668 14.2843 4.44568 14.2787 4.41469 14.2674C4.39058 14.2562 4.3699 14.2449 4.34579 14.2281C4.32857 14.2168 4.31135 14.1999 4.29757 14.1774C4.27347 14.1436 4.25283 14.1043 4.23561 14.0536C4.22528 14.0255 4.21837 13.9974 4.21492 13.9692C4.21148 13.9355 4.20803 13.9074 4.20803 13.8736L4.20803 13.2997L3.96698 14.048C3.94977 14.0986 3.93253 14.138 3.90843 14.1662C3.87399 14.2168 3.83957 14.2449 3.80169 14.2618C3.76725 14.2787 3.72935 14.2899 3.69491 14.2899C3.66392 14.2899 3.63296 14.2843 3.60197 14.2731C3.57786 14.2618 3.55717 14.2506 3.53307 14.2337C3.51585 14.2224 3.49863 14.2055 3.48485 14.183C3.46074 14.1493 3.44011 14.1099 3.42289 14.0593C3.41256 14.0311 3.40909 14.003 3.4022 13.9749C3.39876 13.9411 3.39531 13.913 3.39531 13.8792L3.39531 5.83384C3.39531 5.79446 3.39876 5.75507 3.40565 5.72131C3.41254 5.68756 3.41945 5.65941 3.42978 5.63691C3.447 5.5919 3.46764 5.55814 3.4883 5.53001C3.51929 5.49063 3.55375 5.46252 3.59163 5.44564C3.62607 5.42876 3.66048 5.42311 3.69836 5.42311C3.72247 5.42311 3.7466 5.42875 3.77071 5.43437C3.79482 5.41187 3.83267 5.43438 3.8671 5.47376Z" fill="#805E59"/>
<path d="M7.26314 21.6534C7.28036 21.6703 7.29754 21.6928 7.31476 21.721C7.33198 21.7491 7.34576 21.7772 7.35609 21.8166L7.59717 22.5705L7.59717 21.9966C7.59717 21.9573 7.60063 21.9179 7.60752 21.8841C7.6144 21.8503 7.62127 21.8222 7.6316 21.7997C7.64882 21.7547 7.6695 21.721 7.69016 21.6928C7.72116 21.6535 7.75557 21.6253 7.79345 21.6084C7.82789 21.5916 7.86235 21.5859 7.90023 21.5859C7.92433 21.5859 7.94843 21.5915 7.97253 21.5972C8.00697 21.6084 8.04487 21.6309 8.07931 21.6647C8.09653 21.6816 8.11371 21.7041 8.13093 21.7322C8.14815 21.7604 8.16192 21.7885 8.17226 21.8279L9.46022 25.8505C9.47055 25.8787 9.47401 25.9068 9.4809 25.9349C9.48434 25.9631 9.48779 25.9968 9.48779 26.0249C9.48779 26.0531 9.48434 26.0869 9.4809 26.115C9.47745 26.1431 9.47055 26.1712 9.46022 26.1994L8.17225 30.2221C8.15848 30.2727 8.13784 30.3121 8.11374 30.3402C8.0793 30.3852 8.04485 30.419 8.01041 30.4359C7.97597 30.4527 7.93811 30.464 7.90367 30.464C7.87268 30.464 7.84168 30.4584 7.81069 30.4471C7.78658 30.4359 7.76589 30.4246 7.74179 30.4077C7.72457 30.3965 7.70738 30.3796 7.69361 30.3571C7.6695 30.329 7.64882 30.284 7.6316 30.2333C7.62127 30.2052 7.61436 30.1771 7.61092 30.1489C7.60748 30.1208 7.60407 30.087 7.60407 30.0533L7.60407 29.4794L7.36298 30.2333C7.34576 30.284 7.32857 30.3233 7.30446 30.3515C7.27003 30.3965 7.23557 30.4302 7.19769 30.4471C7.16325 30.464 7.12539 30.4752 7.09095 30.4752C7.05996 30.4752 7.02896 30.4696 6.99796 30.4584C6.97386 30.4471 6.95317 30.4358 6.92906 30.419C6.91185 30.4077 6.89462 30.3909 6.88085 30.3684C6.85674 30.3402 6.8361 30.2952 6.81888 30.2446C6.80855 30.2164 6.80509 30.1883 6.7982 30.1602C6.79131 30.1321 6.79131 30.0983 6.79131 30.0646L6.79131 22.0191C6.79131 21.9797 6.79476 21.9404 6.80165 21.9066C6.80854 21.8729 6.81545 21.8447 6.82578 21.8222C6.843 21.7772 6.86363 21.7435 6.88429 21.7153C6.91529 21.6759 6.94974 21.6478 6.98762 21.6309C7.02206 21.614 7.05648 21.6084 7.09436 21.6084C7.11846 21.6084 7.1426 21.6141 7.16671 21.6197C7.19081 21.5972 7.2287 21.6141 7.26314 21.6534Z" fill="#805E59"/>
<path d="M7.26314 10.8644C7.28036 10.8813 7.29754 10.9038 7.31476 10.9319C7.33198 10.96 7.34576 10.9881 7.35609 11.0275L7.59717 11.7815L7.59717 11.2076C7.59717 11.1682 7.60063 11.1288 7.60752 11.095C7.6144 11.0613 7.62127 11.0331 7.6316 11.0106C7.64882 10.9656 7.6695 10.9319 7.69016 10.9038C7.72116 10.8644 7.75557 10.8362 7.79345 10.8194C7.82789 10.8025 7.86235 10.7969 7.90023 10.7969C7.92433 10.7969 7.94843 10.8025 7.97253 10.8081C8.00697 10.8194 8.04487 10.8419 8.07931 10.8756C8.09653 10.8925 8.11371 10.915 8.13093 10.9431C8.14815 10.9713 8.16192 10.9994 8.17226 11.0388L9.46022 15.0615C9.47055 15.0896 9.47401 15.1177 9.4809 15.1459C9.48434 15.174 9.48779 15.2078 9.48779 15.2359C9.48779 15.2696 9.48434 15.2978 9.4809 15.3259C9.47745 15.3541 9.47055 15.3822 9.46022 15.4103L8.17225 19.433C8.15848 19.4836 8.13784 19.523 8.11374 19.5512C8.0793 19.6018 8.04485 19.6299 8.01041 19.6468C7.97597 19.6637 7.93811 19.6749 7.90367 19.6749C7.87268 19.6749 7.84168 19.6693 7.81069 19.6581C7.78658 19.6468 7.76589 19.6356 7.74179 19.6187C7.72457 19.6018 7.70738 19.5905 7.69361 19.568C7.6695 19.5343 7.64882 19.4949 7.6316 19.4443C7.62127 19.4161 7.61436 19.388 7.61092 19.3599C7.60748 19.3261 7.60407 19.298 7.60407 19.2642L7.60407 18.6903L7.36298 19.4386C7.34576 19.4893 7.32857 19.5286 7.30446 19.5568C7.27003 19.6074 7.23557 19.6356 7.19769 19.6524C7.16325 19.6693 7.12539 19.6806 7.09095 19.6806C7.05996 19.6806 7.02896 19.6749 6.99796 19.6637C6.97386 19.6524 6.95317 19.6412 6.92906 19.6243C6.91185 19.6074 6.89462 19.5962 6.88085 19.5737C6.85674 19.5399 6.8361 19.5005 6.81888 19.4499C6.80855 19.4217 6.80509 19.3936 6.7982 19.3655C6.79476 19.3317 6.79131 19.3036 6.79131 19.2699L6.79131 11.2244C6.79131 11.1851 6.79476 11.1457 6.80165 11.1119C6.80854 11.0782 6.81545 11.05 6.82578 11.0275C6.843 10.9825 6.86363 10.9488 6.88429 10.9206C6.91529 10.8813 6.94974 10.8531 6.98762 10.8362C7.02206 10.8193 7.05648 10.8137 7.09436 10.8137C7.11846 10.8137 7.1426 10.8194 7.16671 10.825C7.19081 10.8081 7.2287 10.8306 7.26314 10.8644Z" fill="#805E59"/>
<path d="M10.6543 16.2589C10.6715 16.2758 10.6887 16.2983 10.7059 16.3264C10.7231 16.3546 10.7369 16.3827 10.7472 16.4221L10.9883 17.176L10.9883 16.6021C10.9883 16.5627 10.9917 16.5234 10.9986 16.4896C11.0055 16.4559 11.0124 16.4277 11.0227 16.4052C11.0399 16.3602 11.0606 16.3264 11.0813 16.2983C11.1123 16.2589 11.1467 16.2308 11.1846 16.2139C11.219 16.197 11.2535 16.1914 11.2913 16.1914C11.3154 16.1914 11.3395 16.197 11.3636 16.2027C11.3981 16.2139 11.436 16.2364 11.4704 16.2702C11.4876 16.2871 11.5049 16.3096 11.5221 16.3377C11.5393 16.3658 11.5531 16.3939 11.5634 16.4333L12.8514 20.456C12.8617 20.4842 12.8651 20.5123 12.872 20.5404C12.8755 20.5685 12.8789 20.6023 12.8789 20.6304C12.8789 20.6642 12.8755 20.6923 12.872 20.7205C12.8686 20.7486 12.8617 20.7767 12.8514 20.8049L11.5634 24.8276C11.5496 24.8782 11.529 24.9176 11.5049 24.9457C11.4704 24.9907 11.436 25.0245 11.4015 25.0413C11.3671 25.0582 11.3292 25.0695 11.2948 25.0695C11.2638 25.0695 11.2328 25.0638 11.2018 25.0526C11.1777 25.0413 11.157 25.0301 11.1329 25.0132C11.1157 25.002 11.0985 24.9851 11.0847 24.9626C11.0606 24.9288 11.0399 24.8894 11.0227 24.8388C11.0124 24.8107 11.0055 24.7826 11.0021 24.7544C10.9986 24.7207 10.9952 24.6925 10.9952 24.6588L10.9952 24.0849L10.7541 24.8332C10.7369 24.8838 10.7197 24.9232 10.6956 24.9513C10.6611 24.9963 10.6267 25.0301 10.5888 25.047C10.5544 25.0638 10.5165 25.0751 10.4821 25.0751C10.4511 25.0751 10.4201 25.0695 10.3891 25.0582C10.365 25.047 10.3443 25.0357 10.3202 25.0188C10.303 25.0076 10.2858 24.9907 10.272 24.9682C10.2479 24.9345 10.2272 24.8951 10.21 24.8444C10.1997 24.8163 10.1928 24.7882 10.1894 24.76C10.1859 24.7263 10.1825 24.6981 10.1825 24.6644L10.1825 16.619C10.1825 16.5796 10.1859 16.5402 10.1928 16.5065C10.1996 16.4727 10.2066 16.4446 10.2169 16.4221C10.2341 16.3771 10.2548 16.3433 10.2754 16.3152C10.3064 16.2758 10.3409 16.2477 10.3787 16.2308C10.4132 16.2139 10.4476 16.2083 10.4855 16.2083C10.5096 16.2083 10.5337 16.2139 10.5578 16.2195C10.5854 16.2027 10.6198 16.2252 10.6543 16.2589Z" fill="#805E59"/>
</svg>
